<svg xmlns="http://www.w3.org/2000/svg" width="1000" height="720" viewBox="0 0 1000 720" role="img" aria-label="Mike Saito GitHub metrics">
<defs>
  <linearGradient id="bg" x1="0" y1="0" x2="1" y2="1"><stop stop-color="#080d18"/><stop offset=".58" stop-color="#0b1220"/><stop offset="1" stop-color="#101827"/></linearGradient>
  <linearGradient id="accent" x1="0" y1="0" x2="1" y2="0"><stop stop-color="#38bdf8"/><stop offset=".5" stop-color="#6366f1"/><stop offset="1" stop-color="#c084fc"/></linearGradient>
  <radialGradient id="glow"><stop stop-color="#3b82f6" stop-opacity=".28"/><stop offset="1" stop-color="#3b82f6" stop-opacity="0"/></radialGradient>
  <filter id="blur"><feGaussianBlur stdDeviation="30"/></filter>
  <style>
    text { font-family:-apple-system,BlinkMacSystemFont,"Segoe UI",sans-serif; }
    .eyebrow { fill:#7dd3fc;font-size:12px;font-weight:700;letter-spacing:3px; }
    .title { fill:#f8fafc;font-size:38px;font-weight:760;letter-spacing:1px; }
    .updated { fill:#64748b;font-size:11px;font-weight:600;letter-spacing:1px; }
    .label { fill:#7c8aa5;font-size:11px;font-weight:700;letter-spacing:1.4px; }
    .value { fill:#f8fafc;font-size:38px;font-weight:760; }
    .note { fill:#526077;font-size:9px;font-weight:700;letter-spacing:1px; }
    .section { fill:#cbd5e1;font-size:11px;font-weight:700;letter-spacing:1.6px; }
    .lang { fill:#9ca9bd;font-size:12px;font-weight:600; }
    .lang-count { fill:#536078;font-size:10px;font-weight:700; }
    .micro { fill:#526077;font-size:10px;font-weight:650;letter-spacing:1px; }
    .big { fill:#e2e8f0;font-size:24px;font-weight:740; }
    .day { fill:#526077;font-size:9px;font-weight:650; }
  </style>
</defs>
<rect x="1" y="1" width="998" height="718" rx="28" fill="url(#bg)" stroke="#1e293b" stroke-width="2"/>
<circle cx="885" cy="30" r="170" fill="url(#glow)" filter="url(#blur)"/>
<rect x="28" y="24" width="944" height="4" rx="2" fill="url(#accent)"/>
<text x="56" y="75" class="eyebrow">GITHUB · LIVE METRICS</text>
<text x="56" y="122" class="title">MIKE SAITO</text>
<circle cx="758" cy="91" r="5" fill="#34d399"/>
<text x="774" y="95" class="updated">UPDATED 19 SEP 2026 · 08:07 UTC</text>
<g transform="translate(56 150)">
  <rect width="205" height="126" rx="18" fill="#111827" stroke="#24324a"/>
  <rect x="18" y="18" width="30" height="3" rx="1.5" fill="url(#accent)"/>
  <text x="18" y="48" class="label">REPOSITORIES</text>
  <text x="18" y="91" class="value">4</text>
  <text x="187" y="92" text-anchor="end" class="note">PUBLIC</text>
</g><g transform="translate(281 150)">
  <rect width="205" height="126" rx="18" fill="#111827" stroke="#24324a"/>
  <rect x="18" y="18" width="30" height="3" rx="1.5" fill="url(#accent)"/>
  <text x="18" y="48" class="label">STARS EARNED</text>
  <text x="18" y="91" class="value">3</text>
  <text x="187" y="92" text-anchor="end" class="note">TOTAL</text>
</g><g transform="translate(506 150)">
  <rect width="205" height="126" rx="18" fill="#111827" stroke="#24324a"/>
  <rect x="18" y="18" width="30" height="3" rx="1.5" fill="url(#accent)"/>
  <text x="18" y="48" class="label">CONTRIBUTIONS</text>
  <text x="18" y="91" class="value">934</text>
  <text x="187" y="92" text-anchor="end" class="note">12 MONTHS</text>
</g><g transform="translate(731 150)">
  <rect width="205" height="126" rx="18" fill="#111827" stroke="#24324a"/>
  <rect x="18" y="18" width="30" height="3" rx="1.5" fill="url(#accent)"/>
  <text x="18" y="48" class="label">ACTIVE DAYS</text>
  <text x="18" y="91" class="value">105</text>
  <text x="187" y="92" text-anchor="end" class="note">12 MONTHS</text>
</g>
<g transform="translate(56 314)">
  <rect width="480" height="136" rx="18" fill="#0d1524" stroke="#1d2a3f"/>
  <text x="20" y="30" class="section">REPOSITORY SIGNAL</text>
  <text x="20" y="75" class="big">4 original</text>
  <text x="20" y="99" class="micro">PUBLIC REPOSITORIES</text>
  <line x1="190" y1="24" x2="190" y2="112" stroke="#1f2c40"/>
  <text x="220" y="75" class="big">3</text>
  <text x="220" y="99" class="micro">PRIMARY LANGUAGES</text>
  <circle cx="432" cy="68" r="24" fill="#111f35" stroke="#28466f"/>
  <path d="M421 69l7 7 15-17" fill="none" stroke="#60a5fa" stroke-width="3" stroke-linecap="round" stroke-linejoin="round"/>
</g>
<text x="578" y="309" class="section">PRIMARY LANGUAGES</text>
<text x="578" y="334" class="lang">Rust</text>
<rect x="686" y="324" width="260" height="8" rx="4" fill="#1f2937"/>
<rect x="686" y="324" width="87" height="8" rx="4" fill="#60a5fa"/>
<text x="952" y="334" text-anchor="end" class="lang-count">1</text><text x="578" y="365" class="lang">TypeScript</text>
<rect x="686" y="355" width="260" height="8" rx="4" fill="#1f2937"/>
<rect x="686" y="355" width="87" height="8" rx="4" fill="#818cf8"/>
<text x="952" y="365" text-anchor="end" class="lang-count">1</text><text x="578" y="396" class="lang">C#</text>
<rect x="686" y="386" width="260" height="8" rx="4" fill="#1f2937"/>
<rect x="686" y="386" width="87" height="8" rx="4" fill="#c084fc"/>
<text x="952" y="396" text-anchor="end" class="lang-count">1</text>
<rect x="56" y="486" width="888" height="174" rx="18" fill="#0d1524" stroke="#1d2a3f"/>
<text x="76" y="519" class="section">CONTRIBUTION ACTIVITY</text>
<text x="924" y="519" text-anchor="end" class="micro">934 ALL CONTRIBUTIONS · LAST 12 MONTHS</text>
<text x="83" y="570" class="day">MON</text><text x="83" y="600" class="day">WED</text><text x="83" y="630" class="day">FRI</text>
<rect x="122" y="547" width="11" height="11" rx="2.5" fill="#172033"><title>2025-09-14: 0</title></rect><rect x="122" y="562" width="11" height="11" rx="2.5" fill="#172033"><title>2025-09-15: 0</title></rect><rect x="122" y="577" width="11" height="11" rx="2.5" fill="#172033"><title>2025-09-16: 0</title></rect><rect x="122" y="592" width="11" height="11" rx="2.5" fill="#172033"><title>2025-09-17: 0</title></rect><rect x="122" y="607" width="11" height="11" rx="2.5" fill="#172033"><title>2025-09-18: 0</title></rect><rect x="122" y="622" width="11" height="11" rx="2.5" fill="#172033"><title>2025-09-19: 0</title></rect><rect x="122" y="637" width="11" height="11" rx="2.5" fill="#172033"><title>2025-09-20: 0</title></rect><rect x="137" y="547" width="11" height="11" rx="2.5" fill="#172033"><title>2025-09-21: 0</title></rect><rect x="137" y="562" width="11" height="11" rx="2.5" fill="#172033"><title>2025-09-22: 0</title></rect><rect x="137" y="577" width="11" height="11" rx="2.5" fill="#172033"><title>2025-09-23: 0</title></rect><rect x="137" y="592" width="11" height="11" rx="2.5" fill="#172033"><title>2025-09-24: 0</title></rect><rect x="137" y="607" width="11" height="11" rx="2.5" fill="#172033"><title>2025-09-25: 0</title></rect><rect x="137" y="622" width="11" height="11" rx="2.5" fill="#172033"><title>2025-09-26: 0</title></rect><rect x="137" y="637" width="11" height="11" rx="2.5" fill="#172033"><title>2025-09-27: 0</title></rect><rect x="152" y="547" width="11" height="11" rx="2.5" fill="#172033"><title>2025-09-28: 0</title></rect><rect x="152" y="562" width="11" height="11" rx="2.5" fill="#172033"><title>2025-09-29: 0</title></rect><rect x="152" y="577" width="11" height="11" rx="2.5" fill="#172033"><title>2025-09-30: 0</title></rect><rect x="152" y="592" width="11" height="11" rx="2.5" fill="#172033"><title>2025-10-01: 0</title></rect><rect x="152" y="607" width="11" height="11" rx="2.5" fill="#172033"><title>2025-10-02: 0</title></rect><rect x="152" y="622" width="11" height="11" rx="2.5" fill="#172033"><title>2025-10-03: 0</title></rect><rect x="152" y="637" width="11" height="11" rx="2.5" fill="#172033"><title>2025-10-04: 0</title></rect><rect x="167" y="547" width="11" height="11" rx="2.5" fill="#172033"><title>2025-10-05: 0</title></rect><rect x="167" y="562" width="11" height="11" rx="2.5" fill="#172033"><title>2025-10-06: 0</title></rect><rect x="167" y="577" width="11" height="11" rx="2.5" fill="#172033"><title>2025-10-07: 0</title></rect><rect x="167" y="592" width="11" height="11" rx="2.5" fill="#172033"><title>2025-10-08: 0</title></rect><rect x="167" y="607" width="11" height="11" rx="2.5" fill="#172033"><title>2025-10-09: 0</title></rect><rect x="167" y="622" width="11" height="11" rx="2.5" fill="#172033"><title>2025-10-10: 0</title></rect><rect x="167" y="637" width="11" height="11" rx="2.5" fill="#172033"><title>2025-10-11: 0</title></rect><rect x="182" y="547" width="11" height="11" rx="2.5" fill="#172033"><title>2025-10-12: 0</title></rect><rect x="182" y="562" width="11" height="11" rx="2.5" fill="#172033"><title>2025-10-13: 0</title></rect><rect x="182" y="577" width="11" height="11" rx="2.5" fill="#172033"><title>2025-10-14: 0</title></rect><rect x="182" y="592" width="11" height="11" rx="2.5" fill="#172033"><title>2025-10-15: 0</title></rect><rect x="182" y="607" width="11" height="11" rx="2.5" fill="#172033"><title>2025-10-16: 0</title></rect><rect x="182" y="622" width="11" height="11" rx="2.5" fill="#172033"><title>2025-10-17: 0</title></rect><rect x="182" y="637" width="11" height="11" rx="2.5" fill="#172033"><title>2025-10-18: 0</title></rect><rect x="197" y="547" width="11" height="11" rx="2.5" fill="#172033"><title>2025-10-19: 0</title></rect><rect x="197" y="562" width="11" height="11" rx="2.5" fill="#172033"><title>2025-10-20: 0</title></rect><rect x="197" y="577" width="11" height="11" rx="2.5" fill="#172033"><title>2025-10-21: 0</title></rect><rect x="197" y="592" width="11" height="11" rx="2.5" fill="#172033"><title>2025-10-22: 0</title></rect><rect x="197" y="607" width="11" height="11" rx="2.5" fill="#172033"><title>2025-10-23: 0</title></rect><rect x="197" y="622" width="11" height="11" rx="2.5" fill="#172033"><title>2025-10-24: 0</title></rect><rect x="197" y="637" width="11" height="11" rx="2.5" fill="#172033"><title>2025-10-25: 0</title></rect><rect x="212" y="547" width="11" height="11" rx="2.5" fill="#172033"><title>2025-10-26: 0</title></rect><rect x="212" y="562" width="11" height="11" rx="2.5" fill="#172033"><title>2025-10-27: 0</title></rect><rect x="212" y="577" width="11" height="11" rx="2.5" fill="#172033"><title>2025-10-28: 0</title></rect><rect x="212" y="592" width="11" height="11" rx="2.5" fill="#172033"><title>2025-10-29: 0</title></rect><rect x="212" y="607" width="11" height="11" rx="2.5" fill="#172033"><title>2025-10-30: 0</title></rect><rect x="212" y="622" width="11" height="11" rx="2.5" fill="#172033"><title>2025-10-31: 0</title></rect><rect x="212" y="637" width="11" height="11" rx="2.5" fill="#172033"><title>2025-11-01: 0</title></rect><rect x="227" y="547" width="11" height="11" rx="2.5" fill="#172033"><title>2025-11-02: 0</title></rect><rect x="227" y="562" width="11" height="11" rx="2.5" fill="#172033"><title>2025-11-03: 0</title></rect><rect x="227" y="577" width="11" height="11" rx="2.5" fill="#172033"><title>2025-11-04: 0</title></rect><rect x="227" y="592" width="11" height="11" rx="2.5" fill="#172033"><title>2025-11-05: 0</title></rect><rect x="227" y="607" width="11" height="11" rx="2.5" fill="#172033"><title>2025-11-06: 0</title></rect><rect x="227" y="622" width="11" height="11" rx="2.5" fill="#172033"><title>2025-11-07: 0</title></rect><rect x="227" y="637" width="11" height="11" rx="2.5" fill="#172033"><title>2025-11-08: 0</title></rect><rect x="242" y="547" width="11" height="11" rx="2.5" fill="#172033"><title>2025-11-09: 0</title></rect><rect x="242" y="562" width="11" height="11" rx="2.5" fill="#172033"><title>2025-11-10: 0</title></rect><rect x="242" y="577" width="11" height="11" rx="2.5" fill="#172033"><title>2025-11-11: 0</title></rect><rect x="242" y="592" width="11" height="11" rx="2.5" fill="#172033"><title>2025-11-12: 0</title></rect><rect x="242" y="607" width="11" height="11" rx="2.5" fill="#172033"><title>2025-11-13: 0</title></rect><rect x="242" y="622" width="11" height="11" rx="2.5" fill="#172033"><title>2025-11-14: 0</title></rect><rect x="242" y="637" width="11" height="11" rx="2.5" fill="#172033"><title>2025-11-15: 0</title></rect><rect x="257" y="547" width="11" height="11" rx="2.5" fill="#172033"><title>2025-11-16: 0</title></rect><rect x="257" y="562" width="11" height="11" rx="2.5" fill="#172033"><title>2025-11-17: 0</title></rect><rect x="257" y="577" width="11" height="11" rx="2.5" fill="#172033"><title>2025-11-18: 0</title></rect><rect x="257" y="592" width="11" height="11" rx="2.5" fill="#172033"><title>2025-11-19: 0</title></rect><rect x="257" y="607" width="11" height="11" rx="2.5" fill="#172033"><title>2025-11-20: 0</title></rect><rect x="257" y="622" width="11" height="11" rx="2.5" fill="#172033"><title>2025-11-21: 0</title></rect><rect x="257" y="637" width="11" height="11" rx="2.5" fill="#172033"><title>2025-11-22: 0</title></rect><rect x="272" y="547" width="11" height="11" rx="2.5" fill="#172033"><title>2025-11-23: 0</title></rect><rect x="272" y="562" width="11" height="11" rx="2.5" fill="#172033"><title>2025-11-24: 0</title></rect><rect x="272" y="577" width="11" height="11" rx="2.5" fill="#172033"><title>2025-11-25: 0</title></rect><rect x="272" y="592" width="11" height="11" rx="2.5" fill="#172033"><title>2025-11-26: 0</title></rect><rect x="272" y="607" width="11" height="11" rx="2.5" fill="#172033"><title>2025-11-27: 0</title></rect><rect x="272" y="622" width="11" height="11" rx="2.5" fill="#172033"><title>2025-11-28: 0</title></rect><rect x="272" y="637" width="11" height="11" rx="2.5" fill="#172033"><title>2025-11-29: 0</title></rect><rect x="287" y="547" width="11" height="11" rx="2.5" fill="#172033"><title>2025-11-30: 0</title></rect><rect x="287" y="562" width="11" height="11" rx="2.5" fill="#172033"><title>2025-12-01: 0</title></rect><rect x="287" y="577" width="11" height="11" rx="2.5" fill="#172033"><title>2025-12-02: 0</title></rect><rect x="287" y="592" width="11" height="11" rx="2.5" fill="#172033"><title>2025-12-03: 0</title></rect><rect x="287" y="607" width="11" height="11" rx="2.5" fill="#172033"><title>2025-12-04: 0</title></rect><rect x="287" y="622" width="11" height="11" rx="2.5" fill="#172033"><title>2025-12-05: 0</title></rect><rect x="287" y="637" width="11" height="11" rx="2.5" fill="#172033"><title>2025-12-06: 0</title></rect><rect x="302" y="547" width="11" height="11" rx="2.5" fill="#172033"><title>2025-12-07: 0</title></rect><rect x="302" y="562" width="11" height="11" rx="2.5" fill="#172033"><title>2025-12-08: 0</title></rect><rect x="302" y="577" width="11" height="11" rx="2.5" fill="#172033"><title>2025-12-09: 0</title></rect><rect x="302" y="592" width="11" height="11" rx="2.5" fill="#172033"><title>2025-12-10: 0</title></rect><rect x="302" y="607" width="11" height="11" rx="2.5" fill="#172033"><title>2025-12-11: 0</title></rect><rect x="302" y="622" width="11" height="11" rx="2.5" fill="#172033"><title>2025-12-12: 0</title></rect><rect x="302" y="637" width="11" height="11" rx="2.5" fill="#172033"><title>2025-12-13: 0</title></rect><rect x="317" y="547" width="11" height="11" rx="2.5" fill="#172033"><title>2025-12-14: 0</title></rect><rect x="317" y="562" width="11" height="11" rx="2.5" fill="#347fc4"><title>2025-12-15: 6</title></rect><rect x="317" y="577" width="11" height="11" rx="2.5" fill="#66b8ff"><title>2025-12-16: 10</title></rect><rect x="317" y="592" width="11" height="11" rx="2.5" fill="#193b5b"><title>2025-12-17: 2</title></rect><rect x="317" y="607" width="11" height="11" rx="2.5" fill="#172033"><title>2025-12-18: 0</title></rect><rect x="317" y="622" width="11" height="11" rx="2.5" fill="#172033"><title>2025-12-19: 0</title></rect><rect x="317" y="637" width="11" height="11" rx="2.5" fill="#172033"><title>2025-12-20: 0</title></rect><rect x="332" y="547" width="11" height="11" rx="2.5" fill="#235d8f"><title>2025-12-21: 4</title></rect><rect x="332" y="562" width="11" height="11" rx="2.5" fill="#235d8f"><title>2025-12-22: 4</title></rect><rect x="332" y="577" width="11" height="11" rx="2.5" fill="#193b5b"><title>2025-12-23: 2</title></rect><rect x="332" y="592" width="11" height="11" rx="2.5" fill="#172033"><title>2025-12-24: 0</title></rect><rect x="332" y="607" width="11" height="11" rx="2.5" fill="#172033"><title>2025-12-25: 0</title></rect><rect x="332" y="622" width="11" height="11" rx="2.5" fill="#172033"><title>2025-12-26: 0</title></rect><rect x="332" y="637" width="11" height="11" rx="2.5" fill="#172033"><title>2025-12-27: 0</title></rect><rect x="347" y="547" width="11" height="11" rx="2.5" fill="#172033"><title>2025-12-28: 0</title></rect><rect x="347" y="562" width="11" height="11" rx="2.5" fill="#172033"><title>2025-12-29: 0</title></rect><rect x="347" y="577" width="11" height="11" rx="2.5" fill="#172033"><title>2025-12-30: 0</title></rect><rect x="347" y="592" width="11" height="11" rx="2.5" fill="#172033"><title>2025-12-31: 0</title></rect><rect x="347" y="607" width="11" height="11" rx="2.5" fill="#172033"><title>2026-01-01: 0</title></rect><rect x="347" y="622" width="11" height="11" rx="2.5" fill="#193b5b"><title>2026-01-02: 2</title></rect><rect x="347" y="637" width="11" height="11" rx="2.5" fill="#66b8ff"><title>2026-01-03: 11</title></rect><rect x="362" y="547" width="11" height="11" rx="2.5" fill="#172033"><title>2026-01-04: 0</title></rect><rect x="362" y="562" width="11" height="11" rx="2.5" fill="#172033"><title>2026-01-05: 0</title></rect><rect x="362" y="577" width="11" height="11" rx="2.5" fill="#172033"><title>2026-01-06: 0</title></rect><rect x="362" y="592" width="11" height="11" rx="2.5" fill="#172033"><title>2026-01-07: 0</title></rect><rect x="362" y="607" width="11" height="11" rx="2.5" fill="#172033"><title>2026-01-08: 0</title></rect><rect x="362" y="622" width="11" height="11" rx="2.5" fill="#172033"><title>2026-01-09: 0</title></rect><rect x="362" y="637" width="11" height="11" rx="2.5" fill="#172033"><title>2026-01-10: 0</title></rect><rect x="377" y="547" width="11" height="11" rx="2.5" fill="#172033"><title>2026-01-11: 0</title></rect><rect x="377" y="562" width="11" height="11" rx="2.5" fill="#172033"><title>2026-01-12: 0</title></rect><rect x="377" y="577" width="11" height="11" rx="2.5" fill="#172033"><title>2026-01-13: 0</title></rect><rect x="377" y="592" width="11" height="11" rx="2.5" fill="#172033"><title>2026-01-14: 0</title></rect><rect x="377" y="607" width="11" height="11" rx="2.5" fill="#172033"><title>2026-01-15: 0</title></rect><rect x="377" y="622" width="11" height="11" rx="2.5" fill="#172033"><title>2026-01-16: 0</title></rect><rect x="377" y="637" width="11" height="11" rx="2.5" fill="#172033"><title>2026-01-17: 0</title></rect><rect x="392" y="547" width="11" height="11" rx="2.5" fill="#172033"><title>2026-01-18: 0</title></rect><rect x="392" y="562" width="11" height="11" rx="2.5" fill="#172033"><title>2026-01-19: 0</title></rect><rect x="392" y="577" width="11" height="11" rx="2.5" fill="#193b5b"><title>2026-01-20: 2</title></rect><rect x="392" y="592" width="11" height="11" rx="2.5" fill="#172033"><title>2026-01-21: 0</title></rect><rect x="392" y="607" width="11" height="11" rx="2.5" fill="#172033"><title>2026-01-22: 0</title></rect><rect x="392" y="622" width="11" height="11" rx="2.5" fill="#172033"><title>2026-01-23: 0</title></rect><rect x="392" y="637" width="11" height="11" rx="2.5" fill="#172033"><title>2026-01-24: 0</title></rect><rect x="407" y="547" width="11" height="11" rx="2.5" fill="#172033"><title>2026-01-25: 0</title></rect><rect x="407" y="562" width="11" height="11" rx="2.5" fill="#172033"><title>2026-01-26: 0</title></rect><rect x="407" y="577" width="11" height="11" rx="2.5" fill="#172033"><title>2026-01-27: 0</title></rect><rect x="407" y="592" width="11" height="11" rx="2.5" fill="#172033"><title>2026-01-28: 0</title></rect><rect x="407" y="607" width="11" height="11" rx="2.5" fill="#172033"><title>2026-01-29: 0</title></rect><rect x="407" y="622" width="11" height="11" rx="2.5" fill="#172033"><title>2026-01-30: 0</title></rect><rect x="407" y="637" width="11" height="11" rx="2.5" fill="#172033"><title>2026-01-31: 0</title></rect><rect x="422" y="547" width="11" height="11" rx="2.5" fill="#172033"><title>2026-02-01: 0</title></rect><rect x="422" y="562" width="11" height="11" rx="2.5" fill="#235d8f"><title>2026-02-02: 4</title></rect><rect x="422" y="577" width="11" height="11" rx="2.5" fill="#172033"><title>2026-02-03: 0</title></rect><rect x="422" y="592" width="11" height="11" rx="2.5" fill="#66b8ff"><title>2026-02-04: 31</title></rect><rect x="422" y="607" width="11" height="11" rx="2.5" fill="#172033"><title>2026-02-05: 0</title></rect><rect x="422" y="622" width="11" height="11" rx="2.5" fill="#172033"><title>2026-02-06: 0</title></rect><rect x="422" y="637" width="11" height="11" rx="2.5" fill="#193b5b"><title>2026-02-07: 1</title></rect><rect x="437" y="547" width="11" height="11" rx="2.5" fill="#235d8f"><title>2026-02-08: 4</title></rect><rect x="437" y="562" width="11" height="11" rx="2.5" fill="#235d8f"><title>2026-02-09: 3</title></rect><rect x="437" y="577" width="11" height="11" rx="2.5" fill="#172033"><title>2026-02-10: 0</title></rect><rect x="437" y="592" width="11" height="11" rx="2.5" fill="#172033"><title>2026-02-11: 0</title></rect><rect x="437" y="607" width="11" height="11" rx="2.5" fill="#172033"><title>2026-02-12: 0</title></rect><rect x="437" y="622" width="11" height="11" rx="2.5" fill="#235d8f"><title>2026-02-13: 3</title></rect><rect x="437" y="637" width="11" height="11" rx="2.5" fill="#193b5b"><title>2026-02-14: 1</title></rect><rect x="452" y="547" width="11" height="11" rx="2.5" fill="#172033"><title>2026-02-15: 0</title></rect><rect x="452" y="562" width="11" height="11" rx="2.5" fill="#193b5b"><title>2026-02-16: 2</title></rect><rect x="452" y="577" width="11" height="11" rx="2.5" fill="#172033"><title>2026-02-17: 0</title></rect><rect x="452" y="592" width="11" height="11" rx="2.5" fill="#172033"><title>2026-02-18: 0</title></rect><rect x="452" y="607" width="11" height="11" rx="2.5" fill="#172033"><title>2026-02-19: 0</title></rect><rect x="452" y="622" width="11" height="11" rx="2.5" fill="#193b5b"><title>2026-02-20: 2</title></rect><rect x="452" y="637" width="11" height="11" rx="2.5" fill="#172033"><title>2026-02-21: 0</title></rect><rect x="467" y="547" width="11" height="11" rx="2.5" fill="#172033"><title>2026-02-22: 0</title></rect><rect x="467" y="562" width="11" height="11" rx="2.5" fill="#172033"><title>2026-02-23: 0</title></rect><rect x="467" y="577" width="11" height="11" rx="2.5" fill="#172033"><title>2026-02-24: 0</title></rect><rect x="467" y="592" width="11" height="11" rx="2.5" fill="#172033"><title>2026-02-25: 0</title></rect><rect x="467" y="607" width="11" height="11" rx="2.5" fill="#172033"><title>2026-02-26: 0</title></rect><rect x="467" y="622" width="11" height="11" rx="2.5" fill="#193b5b"><title>2026-02-27: 1</title></rect><rect x="467" y="637" width="11" height="11" rx="2.5" fill="#235d8f"><title>2026-02-28: 3</title></rect><rect x="482" y="547" width="11" height="11" rx="2.5" fill="#66b8ff"><title>2026-03-01: 7</title></rect><rect x="482" y="562" width="11" height="11" rx="2.5" fill="#66b8ff"><title>2026-03-02: 12</title></rect><rect x="482" y="577" width="11" height="11" rx="2.5" fill="#172033"><title>2026-03-03: 0</title></rect><rect x="482" y="592" width="11" height="11" rx="2.5" fill="#66b8ff"><title>2026-03-04: 8</title></rect><rect x="482" y="607" width="11" height="11" rx="2.5" fill="#66b8ff"><title>2026-03-05: 8</title></rect><rect x="482" y="622" width="11" height="11" rx="2.5" fill="#193b5b"><title>2026-03-06: 2</title></rect><rect x="482" y="637" width="11" height="11" rx="2.5" fill="#172033"><title>2026-03-07: 0</title></rect><rect x="497" y="547" width="11" height="11" rx="2.5" fill="#172033"><title>2026-03-08: 0</title></rect><rect x="497" y="562" width="11" height="11" rx="2.5" fill="#172033"><title>2026-03-09: 0</title></rect><rect x="497" y="577" width="11" height="11" rx="2.5" fill="#172033"><title>2026-03-10: 0</title></rect><rect x="497" y="592" width="11" height="11" rx="2.5" fill="#172033"><title>2026-03-11: 0</title></rect><rect x="497" y="607" width="11" height="11" rx="2.5" fill="#172033"><title>2026-03-12: 0</title></rect><rect x="497" y="622" width="11" height="11" rx="2.5" fill="#235d8f"><title>2026-03-13: 4</title></rect><rect x="497" y="637" width="11" height="11" rx="2.5" fill="#172033"><title>2026-03-14: 0</title></rect><rect x="512" y="547" width="11" height="11" rx="2.5" fill="#172033"><title>2026-03-15: 0</title></rect><rect x="512" y="562" width="11" height="11" rx="2.5" fill="#172033"><title>2026-03-16: 0</title></rect><rect x="512" y="577" width="11" height="11" rx="2.5" fill="#172033"><title>2026-03-17: 0</title></rect><rect x="512" y="592" width="11" height="11" rx="2.5" fill="#172033"><title>2026-03-18: 0</title></rect><rect x="512" y="607" width="11" height="11" rx="2.5" fill="#172033"><title>2026-03-19: 0</title></rect><rect x="512" y="622" width="11" height="11" rx="2.5" fill="#172033"><title>2026-03-20: 0</title></rect><rect x="512" y="637" width="11" height="11" rx="2.5" fill="#172033"><title>2026-03-21: 0</title></rect><rect x="527" y="547" width="11" height="11" rx="2.5" fill="#172033"><title>2026-03-22: 0</title></rect><rect x="527" y="562" width="11" height="11" rx="2.5" fill="#172033"><title>2026-03-23: 0</title></rect><rect x="527" y="577" width="11" height="11" rx="2.5" fill="#193b5b"><title>2026-03-24: 1</title></rect><rect x="527" y="592" width="11" height="11" rx="2.5" fill="#66b8ff"><title>2026-03-25: 16</title></rect><rect x="527" y="607" width="11" height="11" rx="2.5" fill="#235d8f"><title>2026-03-26: 4</title></rect><rect x="527" y="622" width="11" height="11" rx="2.5" fill="#172033"><title>2026-03-27: 0</title></rect><rect x="527" y="637" width="11" height="11" rx="2.5" fill="#235d8f"><title>2026-03-28: 4</title></rect><rect x="542" y="547" width="11" height="11" rx="2.5" fill="#172033"><title>2026-03-29: 0</title></rect><rect x="542" y="562" width="11" height="11" rx="2.5" fill="#235d8f"><title>2026-03-30: 3</title></rect><rect x="542" y="577" width="11" height="11" rx="2.5" fill="#172033"><title>2026-03-31: 0</title></rect><rect x="542" y="592" width="11" height="11" rx="2.5" fill="#172033"><title>2026-04-01: 0</title></rect><rect x="542" y="607" width="11" height="11" rx="2.5" fill="#235d8f"><title>2026-04-02: 3</title></rect><rect x="542" y="622" width="11" height="11" rx="2.5" fill="#193b5b"><title>2026-04-03: 1</title></rect><rect x="542" y="637" width="11" height="11" rx="2.5" fill="#172033"><title>2026-04-04: 0</title></rect><rect x="557" y="547" width="11" height="11" rx="2.5" fill="#172033"><title>2026-04-05: 0</title></rect><rect x="557" y="562" width="11" height="11" rx="2.5" fill="#172033"><title>2026-04-06: 0</title></rect><rect x="557" y="577" width="11" height="11" rx="2.5" fill="#172033"><title>2026-04-07: 0</title></rect><rect x="557" y="592" width="11" height="11" rx="2.5" fill="#172033"><title>2026-04-08: 0</title></rect><rect x="557" y="607" width="11" height="11" rx="2.5" fill="#172033"><title>2026-04-09: 0</title></rect><rect x="557" y="622" width="11" height="11" rx="2.5" fill="#172033"><title>2026-04-10: 0</title></rect><rect x="557" y="637" width="11" height="11" rx="2.5" fill="#193b5b"><title>2026-04-11: 1</title></rect><rect x="572" y="547" width="11" height="11" rx="2.5" fill="#193b5b"><title>2026-04-12: 2</title></rect><rect x="572" y="562" width="11" height="11" rx="2.5" fill="#172033"><title>2026-04-13: 0</title></rect><rect x="572" y="577" width="11" height="11" rx="2.5" fill="#172033"><title>2026-04-14: 0</title></rect><rect x="572" y="592" width="11" height="11" rx="2.5" fill="#66b8ff"><title>2026-04-15: 8</title></rect><rect x="572" y="607" width="11" height="11" rx="2.5" fill="#172033"><title>2026-04-16: 0</title></rect><rect x="572" y="622" width="11" height="11" rx="2.5" fill="#172033"><title>2026-04-17: 0</title></rect><rect x="572" y="637" width="11" height="11" rx="2.5" fill="#172033"><title>2026-04-18: 0</title></rect><rect x="587" y="547" width="11" height="11" rx="2.5" fill="#172033"><title>2026-04-19: 0</title></rect><rect x="587" y="562" width="11" height="11" rx="2.5" fill="#66b8ff"><title>2026-04-20: 13</title></rect><rect x="587" y="577" width="11" height="11" rx="2.5" fill="#172033"><title>2026-04-21: 0</title></rect><rect x="587" y="592" width="11" height="11" rx="2.5" fill="#172033"><title>2026-04-22: 0</title></rect><rect x="587" y="607" width="11" height="11" rx="2.5" fill="#193b5b"><title>2026-04-23: 2</title></rect><rect x="587" y="622" width="11" height="11" rx="2.5" fill="#172033"><title>2026-04-24: 0</title></rect><rect x="587" y="637" width="11" height="11" rx="2.5" fill="#172033"><title>2026-04-25: 0</title></rect><rect x="602" y="547" width="11" height="11" rx="2.5" fill="#172033"><title>2026-04-26: 0</title></rect><rect x="602" y="562" width="11" height="11" rx="2.5" fill="#172033"><title>2026-04-27: 0</title></rect><rect x="602" y="577" width="11" height="11" rx="2.5" fill="#172033"><title>2026-04-28: 0</title></rect><rect x="602" y="592" width="11" height="11" rx="2.5" fill="#172033"><title>2026-04-29: 0</title></rect><rect x="602" y="607" width="11" height="11" rx="2.5" fill="#347fc4"><title>2026-04-30: 6</title></rect><rect x="602" y="622" width="11" height="11" rx="2.5" fill="#172033"><title>2026-05-01: 0</title></rect><rect x="602" y="637" width="11" height="11" rx="2.5" fill="#172033"><title>2026-05-02: 0</title></rect><rect x="617" y="547" width="11" height="11" rx="2.5" fill="#172033"><title>2026-05-03: 0</title></rect><rect x="617" y="562" width="11" height="11" rx="2.5" fill="#172033"><title>2026-05-04: 0</title></rect><rect x="617" y="577" width="11" height="11" rx="2.5" fill="#193b5b"><title>2026-05-05: 1</title></rect><rect x="617" y="592" width="11" height="11" rx="2.5" fill="#172033"><title>2026-05-06: 0</title></rect><rect x="617" y="607" width="11" height="11" rx="2.5" fill="#172033"><title>2026-05-07: 0</title></rect><rect x="617" y="622" width="11" height="11" rx="2.5" fill="#235d8f"><title>2026-05-08: 3</title></rect><rect x="617" y="637" width="11" height="11" rx="2.5" fill="#66b8ff"><title>2026-05-09: 20</title></rect><rect x="632" y="547" width="11" height="11" rx="2.5" fill="#66b8ff"><title>2026-05-10: 8</title></rect><rect x="632" y="562" width="11" height="11" rx="2.5" fill="#193b5b"><title>2026-05-11: 2</title></rect><rect x="632" y="577" width="11" height="11" rx="2.5" fill="#66b8ff"><title>2026-05-12: 10</title></rect><rect x="632" y="592" width="11" height="11" rx="2.5" fill="#172033"><title>2026-05-13: 0</title></rect><rect x="632" y="607" width="11" height="11" rx="2.5" fill="#172033"><title>2026-05-14: 0</title></rect><rect x="632" y="622" width="11" height="11" rx="2.5" fill="#172033"><title>2026-05-15: 0</title></rect><rect x="632" y="637" width="11" height="11" rx="2.5" fill="#172033"><title>2026-05-16: 0</title></rect><rect x="647" y="547" width="11" height="11" rx="2.5" fill="#172033"><title>2026-05-17: 0</title></rect><rect x="647" y="562" width="11" height="11" rx="2.5" fill="#172033"><title>2026-05-18: 0</title></rect><rect x="647" y="577" width="11" height="11" rx="2.5" fill="#172033"><title>2026-05-19: 0</title></rect><rect x="647" y="592" width="11" height="11" rx="2.5" fill="#172033"><title>2026-05-20: 0</title></rect><rect x="647" y="607" width="11" height="11" rx="2.5" fill="#172033"><title>2026-05-21: 0</title></rect><rect x="647" y="622" width="11" height="11" rx="2.5" fill="#172033"><title>2026-05-22: 0</title></rect><rect x="647" y="637" width="11" height="11" rx="2.5" fill="#172033"><title>2026-05-23: 0</title></rect><rect x="662" y="547" width="11" height="11" rx="2.5" fill="#347fc4"><title>2026-05-24: 5</title></rect><rect x="662" y="562" width="11" height="11" rx="2.5" fill="#172033"><title>2026-05-25: 0</title></rect><rect x="662" y="577" width="11" height="11" rx="2.5" fill="#172033"><title>2026-05-26: 0</title></rect><rect x="662" y="592" width="11" height="11" rx="2.5" fill="#66b8ff"><title>2026-05-27: 11</title></rect><rect x="662" y="607" width="11" height="11" rx="2.5" fill="#172033"><title>2026-05-28: 0</title></rect><rect x="662" y="622" width="11" height="11" rx="2.5" fill="#172033"><title>2026-05-29: 0</title></rect><rect x="662" y="637" width="11" height="11" rx="2.5" fill="#172033"><title>2026-05-30: 0</title></rect><rect x="677" y="547" width="11" height="11" rx="2.5" fill="#172033"><title>2026-05-31: 0</title></rect><rect x="677" y="562" width="11" height="11" rx="2.5" fill="#172033"><title>2026-06-01: 0</title></rect><rect x="677" y="577" width="11" height="11" rx="2.5" fill="#172033"><title>2026-06-02: 0</title></rect><rect x="677" y="592" width="11" height="11" rx="2.5" fill="#172033"><title>2026-06-03: 0</title></rect><rect x="677" y="607" width="11" height="11" rx="2.5" fill="#172033"><title>2026-06-04: 0</title></rect><rect x="677" y="622" width="11" height="11" rx="2.5" fill="#172033"><title>2026-06-05: 0</title></rect><rect x="677" y="637" width="11" height="11" rx="2.5" fill="#172033"><title>2026-06-06: 0</title></rect><rect x="692" y="547" width="11" height="11" rx="2.5" fill="#172033"><title>2026-06-07: 0</title></rect><rect x="692" y="562" width="11" height="11" rx="2.5" fill="#235d8f"><title>2026-06-08: 3</title></rect><rect x="692" y="577" width="11" height="11" rx="2.5" fill="#66b8ff"><title>2026-06-09: 10</title></rect><rect x="692" y="592" width="11" height="11" rx="2.5" fill="#66b8ff"><title>2026-06-10: 19</title></rect><rect x="692" y="607" width="11" height="11" rx="2.5" fill="#66b8ff"><title>2026-06-11: 14</title></rect><rect x="692" y="622" width="11" height="11" rx="2.5" fill="#66b8ff"><title>2026-06-12: 9</title></rect><rect x="692" y="637" width="11" height="11" rx="2.5" fill="#235d8f"><title>2026-06-13: 4</title></rect><rect x="707" y="547" width="11" height="11" rx="2.5" fill="#235d8f"><title>2026-06-14: 3</title></rect><rect x="707" y="562" width="11" height="11" rx="2.5" fill="#172033"><title>2026-06-15: 0</title></rect><rect x="707" y="577" width="11" height="11" rx="2.5" fill="#193b5b"><title>2026-06-16: 1</title></rect><rect x="707" y="592" width="11" height="11" rx="2.5" fill="#172033"><title>2026-06-17: 0</title></rect><rect x="707" y="607" width="11" height="11" rx="2.5" fill="#172033"><title>2026-06-18: 0</title></rect><rect x="707" y="622" width="11" height="11" rx="2.5" fill="#172033"><title>2026-06-19: 0</title></rect><rect x="707" y="637" width="11" height="11" rx="2.5" fill="#235d8f"><title>2026-06-20: 3</title></rect><rect x="722" y="547" width="11" height="11" rx="2.5" fill="#66b8ff"><title>2026-06-21: 19</title></rect><rect x="722" y="562" width="11" height="11" rx="2.5" fill="#347fc4"><title>2026-06-22: 6</title></rect><rect x="722" y="577" width="11" height="11" rx="2.5" fill="#66b8ff"><title>2026-06-23: 9</title></rect><rect x="722" y="592" width="11" height="11" rx="2.5" fill="#66b8ff"><title>2026-06-24: 7</title></rect><rect x="722" y="607" width="11" height="11" rx="2.5" fill="#66b8ff"><title>2026-06-25: 9</title></rect><rect x="722" y="622" width="11" height="11" rx="2.5" fill="#347fc4"><title>2026-06-26: 6</title></rect><rect x="722" y="637" width="11" height="11" rx="2.5" fill="#66b8ff"><title>2026-06-27: 26</title></rect><rect x="737" y="547" width="11" height="11" rx="2.5" fill="#172033"><title>2026-06-28: 0</title></rect><rect x="737" y="562" width="11" height="11" rx="2.5" fill="#172033"><title>2026-06-29: 0</title></rect><rect x="737" y="577" width="11" height="11" rx="2.5" fill="#66b8ff"><title>2026-06-30: 21</title></rect><rect x="737" y="592" width="11" height="11" rx="2.5" fill="#347fc4"><title>2026-07-01: 6</title></rect><rect x="737" y="607" width="11" height="11" rx="2.5" fill="#172033"><title>2026-07-02: 0</title></rect><rect x="737" y="622" width="11" height="11" rx="2.5" fill="#172033"><title>2026-07-03: 0</title></rect><rect x="737" y="637" width="11" height="11" rx="2.5" fill="#172033"><title>2026-07-04: 0</title></rect><rect x="752" y="547" width="11" height="11" rx="2.5" fill="#172033"><title>2026-07-05: 0</title></rect><rect x="752" y="562" width="11" height="11" rx="2.5" fill="#66b8ff"><title>2026-07-06: 10</title></rect><rect x="752" y="577" width="11" height="11" rx="2.5" fill="#193b5b"><title>2026-07-07: 1</title></rect><rect x="752" y="592" width="11" height="11" rx="2.5" fill="#193b5b"><title>2026-07-08: 1</title></rect><rect x="752" y="607" width="11" height="11" rx="2.5" fill="#193b5b"><title>2026-07-09: 1</title></rect><rect x="752" y="622" width="11" height="11" rx="2.5" fill="#193b5b"><title>2026-07-10: 1</title></rect><rect x="752" y="637" width="11" height="11" rx="2.5" fill="#66b8ff"><title>2026-07-11: 10</title></rect><rect x="767" y="547" width="11" height="11" rx="2.5" fill="#193b5b"><title>2026-07-12: 1</title></rect><rect x="767" y="562" width="11" height="11" rx="2.5" fill="#235d8f"><title>2026-07-13: 3</title></rect><rect x="767" y="577" width="11" height="11" rx="2.5" fill="#66b8ff"><title>2026-07-14: 9</title></rect><rect x="767" y="592" width="11" height="11" rx="2.5" fill="#235d8f"><title>2026-07-15: 4</title></rect><rect x="767" y="607" width="11" height="11" rx="2.5" fill="#172033"><title>2026-07-16: 0</title></rect><rect x="767" y="622" width="11" height="11" rx="2.5" fill="#172033"><title>2026-07-17: 0</title></rect><rect x="767" y="637" width="11" height="11" rx="2.5" fill="#172033"><title>2026-07-18: 0</title></rect><rect x="782" y="547" width="11" height="11" rx="2.5" fill="#172033"><title>2026-07-19: 0</title></rect><rect x="782" y="562" width="11" height="11" rx="2.5" fill="#172033"><title>2026-07-20: 0</title></rect><rect x="782" y="577" width="11" height="11" rx="2.5" fill="#172033"><title>2026-07-21: 0</title></rect><rect x="782" y="592" width="11" height="11" rx="2.5" fill="#66b8ff"><title>2026-07-22: 11</title></rect><rect x="782" y="607" width="11" height="11" rx="2.5" fill="#172033"><title>2026-07-23: 0</title></rect><rect x="782" y="622" width="11" height="11" rx="2.5" fill="#172033"><title>2026-07-24: 0</title></rect><rect x="782" y="637" width="11" height="11" rx="2.5" fill="#172033"><title>2026-07-25: 0</title></rect><rect x="797" y="547" width="11" height="11" rx="2.5" fill="#172033"><title>2026-07-26: 0</title></rect><rect x="797" y="562" width="11" height="11" rx="2.5" fill="#66b8ff"><title>2026-07-27: 14</title></rect><rect x="797" y="577" width="11" height="11" rx="2.5" fill="#172033"><title>2026-07-28: 0</title></rect><rect x="797" y="592" width="11" height="11" rx="2.5" fill="#172033"><title>2026-07-29: 0</title></rect><rect x="797" y="607" width="11" height="11" rx="2.5" fill="#347fc4"><title>2026-07-30: 6</title></rect><rect x="797" y="622" width="11" height="11" rx="2.5" fill="#172033"><title>2026-07-31: 0</title></rect><rect x="797" y="637" width="11" height="11" rx="2.5" fill="#66b8ff"><title>2026-08-01: 7</title></rect><rect x="812" y="547" width="11" height="11" rx="2.5" fill="#66b8ff"><title>2026-08-02: 9</title></rect><rect x="812" y="562" width="11" height="11" rx="2.5" fill="#172033"><title>2026-08-03: 0</title></rect><rect x="812" y="577" width="11" height="11" rx="2.5" fill="#172033"><title>2026-08-04: 0</title></rect><rect x="812" y="592" width="11" height="11" rx="2.5" fill="#193b5b"><title>2026-08-05: 1</title></rect><rect x="812" y="607" width="11" height="11" rx="2.5" fill="#172033"><title>2026-08-06: 0</title></rect><rect x="812" y="622" width="11" height="11" rx="2.5" fill="#172033"><title>2026-08-07: 0</title></rect><rect x="812" y="637" width="11" height="11" rx="2.5" fill="#193b5b"><title>2026-08-08: 2</title></rect><rect x="827" y="547" width="11" height="11" rx="2.5" fill="#66b8ff"><title>2026-08-09: 7</title></rect><rect x="827" y="562" width="11" height="11" rx="2.5" fill="#172033"><title>2026-08-10: 0</title></rect><rect x="827" y="577" width="11" height="11" rx="2.5" fill="#172033"><title>2026-08-11: 0</title></rect><rect x="827" y="592" width="11" height="11" rx="2.5" fill="#172033"><title>2026-08-12: 0</title></rect><rect x="827" y="607" width="11" height="11" rx="2.5" fill="#172033"><title>2026-08-13: 0</title></rect><rect x="827" y="622" width="11" height="11" rx="2.5" fill="#172033"><title>2026-08-14: 0</title></rect><rect x="827" y="637" width="11" height="11" rx="2.5" fill="#172033"><title>2026-08-15: 0</title></rect><rect x="842" y="547" width="11" height="11" rx="2.5" fill="#172033"><title>2026-08-16: 0</title></rect><rect x="842" y="562" width="11" height="11" rx="2.5" fill="#172033"><title>2026-08-17: 0</title></rect><rect x="842" y="577" width="11" height="11" rx="2.5" fill="#172033"><title>2026-08-18: 0</title></rect><rect x="842" y="592" width="11" height="11" rx="2.5" fill="#347fc4"><title>2026-08-19: 5</title></rect><rect x="842" y="607" width="11" height="11" rx="2.5" fill="#66b8ff"><title>2026-08-20: 46</title></rect><rect x="842" y="622" width="11" height="11" rx="2.5" fill="#66b8ff"><title>2026-08-21: 31</title></rect><rect x="842" y="637" width="11" height="11" rx="2.5" fill="#66b8ff"><title>2026-08-22: 37</title></rect><rect x="857" y="547" width="11" height="11" rx="2.5" fill="#66b8ff"><title>2026-08-23: 15</title></rect><rect x="857" y="562" width="11" height="11" rx="2.5" fill="#66b8ff"><title>2026-08-24: 18</title></rect><rect x="857" y="577" width="11" height="11" rx="2.5" fill="#66b8ff"><title>2026-08-25: 29</title></rect><rect x="857" y="592" width="11" height="11" rx="2.5" fill="#66b8ff"><title>2026-08-26: 20</title></rect><rect x="857" y="607" width="11" height="11" rx="2.5" fill="#66b8ff"><title>2026-08-27: 26</title></rect><rect x="857" y="622" width="11" height="11" rx="2.5" fill="#235d8f"><title>2026-08-28: 3</title></rect><rect x="857" y="637" width="11" height="11" rx="2.5" fill="#66b8ff"><title>2026-08-29: 43</title></rect><rect x="872" y="547" width="11" height="11" rx="2.5" fill="#66b8ff"><title>2026-08-30: 43</title></rect><rect x="872" y="562" width="11" height="11" rx="2.5" fill="#66b8ff"><title>2026-08-31: 42</title></rect><rect x="872" y="577" width="11" height="11" rx="2.5" fill="#66b8ff"><title>2026-09-01: 8</title></rect><rect x="872" y="592" width="11" height="11" rx="2.5" fill="#172033"><title>2026-09-02: 0</title></rect><rect x="872" y="607" width="11" height="11" rx="2.5" fill="#172033"><title>2026-09-03: 0</title></rect><rect x="872" y="622" width="11" height="11" rx="2.5" fill="#172033"><title>2026-09-04: 0</title></rect><rect x="872" y="637" width="11" height="11" rx="2.5" fill="#193b5b"><title>2026-09-05: 1</title></rect><rect x="887" y="547" width="11" height="11" rx="2.5" fill="#172033"><title>2026-09-06: 0</title></rect><rect x="887" y="562" width="11" height="11" rx="2.5" fill="#193b5b"><title>2026-09-07: 1</title></rect><rect x="887" y="577" width="11" height="11" rx="2.5" fill="#193b5b"><title>2026-09-08: 1</title></rect><rect x="887" y="592" width="11" height="11" rx="2.5" fill="#235d8f"><title>2026-09-09: 4</title></rect><rect x="887" y="607" width="11" height="11" rx="2.5" fill="#347fc4"><title>2026-09-10: 5</title></rect><rect x="887" y="622" width="11" height="11" rx="2.5" fill="#172033"><title>2026-09-11: 0</title></rect><rect x="887" y="637" width="11" height="11" rx="2.5" fill="#172033"><title>2026-09-12: 0</title></rect><rect x="902" y="547" width="11" height="11" rx="2.5" fill="#172033"><title>2026-09-13: 0</title></rect><rect x="902" y="562" width="11" height="11" rx="2.5" fill="#235d8f"><title>2026-09-14: 4</title></rect><rect x="902" y="577" width="11" height="11" rx="2.5" fill="#193b5b"><title>2026-09-15: 2</title></rect><rect x="902" y="592" width="11" height="11" rx="2.5" fill="#172033"><title>2026-09-16: 0</title></rect><rect x="902" y="607" width="11" height="11" rx="2.5" fill="#66b8ff"><title>2026-09-17: 14</title></rect><rect x="902" y="622" width="11" height="11" rx="2.5" fill="#172033"><title>2026-09-18: 0</title></rect><rect x="902" y="637" width="11" height="11" rx="2.5" fill="#172033"><title>2026-09-19: 0</title></rect>
<text x="56" y="694" class="micro">GITHUB.COM/MIKESAITO</text>
<text x="944" y="694" text-anchor="end" class="micro">AUTOMATICALLY GENERATED</text>
</svg>
